<svg xmlns="http://www.w3.org/2000/svg" width="128" height="128" fill="none">
    <path fill="#000" fill-rule="evenodd"
          d="M17.067 16C7.64 16 0 23.641 0 33.067v61.866C0 104.36 7.641 112 17.067 112h93.866c9.426 0 17.067-7.641 17.067-17.067V33.067C128 23.64 120.359 16 110.933 16H17.067Zm1.63 5C11.131 21 5 27.104 5 34.634v58.732C5 100.896 11.132 107 18.697 107h90.607c7.564 0 13.696-6.104 13.696-13.634V34.634C123 27.104 116.868 21 109.304 21H18.696Z"
          clip-rule="evenodd" />
    <path fill="#000"
          d="M40.625 74c0 5.868-4.757 10.625-10.625 10.625S19.375 79.868 19.375 74 24.132 63.375 30 63.375 40.625 68.132 40.625 74ZM64 80.375A6.375 6.375 0 0 0 70.375 74h4.25c0 5.868-4.757 10.625-10.625 10.625S53.375 79.868 53.375 74h4.25A6.375 6.375 0 0 0 64 80.375ZM108.625 74c0 5.868-4.757 10.625-10.625 10.625S87.375 79.868 87.375 74 92.132 63.375 98 63.375 108.625 68.132 108.625 74Z" />

    <style>
        @media (prefers-color-scheme:dark) {
            :root {
                filter: invert(100%)
            }
        }
    </style>
</svg>
